<svg width="17" height="17" viewBox="0 0 17 17" fill="none" xmlns="http://www.w3.org/2000/svg">
<path d="M15.9772 0H0.932744C0.685365 0 0.448118 0.0987776 0.273194 0.274603C0.098271 0.450428 0 0.688898 0 0.937553V16.061C0 16.3097 0.098271 16.5481 0.273194 16.724C0.448118 16.8998 0.685365 16.9986 0.932744 16.9986H9.02896V10.4169H6.82768V7.85093H9.02896V5.95851C9.02896 3.76319 10.3635 2.56745 12.3122 2.56745C12.9698 2.5651 13.6271 2.5988 14.281 2.66842V4.96326H12.9336C11.8731 4.96326 11.6679 5.46954 11.6679 6.21237V7.85093H14.1949L13.8663 10.4169H11.6679V17H15.9729C16.2201 16.9996 16.4572 16.9007 16.632 16.725C16.8068 16.5492 16.9052 16.311 16.9056 16.0624V0.938995C16.906 0.690839 16.8085 0.452652 16.6345 0.276639C16.4604 0.100626 16.2241 0.00114504 15.9772 0Z" fill="black"/>
</svg>
