<svg width="18" height="17" viewBox="0 0 18 17" fill="none" xmlns="http://www.w3.org/2000/svg">
<path d="M5.29143 0H12.3948C15.1008 0 17.2995 2.21 17.2995 4.93V12.07C17.2995 13.3775 16.7828 14.6315 15.863 15.556C14.9431 16.4806 13.6956 17 12.3948 17H5.29143C2.58538 17 0.386719 14.79 0.386719 12.07V4.93C0.386719 3.62248 0.903464 2.36852 1.82327 1.44396C2.74309 0.519409 3.99062 0 5.29143 0ZM5.1223 1.7C4.3149 1.7 3.54057 2.02239 2.96965 2.59625C2.39874 3.17011 2.078 3.94844 2.078 4.76V12.24C2.078 13.9315 3.43948 15.3 5.1223 15.3H12.5639C13.3713 15.3 14.1457 14.9776 14.7166 14.4037C15.2875 13.8299 15.6082 13.0516 15.6082 12.24V4.76C15.6082 3.0685 14.2467 1.7 12.5639 1.7H5.1223ZM13.2827 2.975C13.5631 2.975 13.8319 3.08694 14.0302 3.2862C14.2284 3.48546 14.3398 3.75571 14.3398 4.0375C14.3398 4.31929 14.2284 4.58954 14.0302 4.7888C13.8319 4.98806 13.5631 5.1 13.2827 5.1C13.0024 5.1 12.7335 4.98806 12.5353 4.7888C12.337 4.58954 12.2257 4.31929 12.2257 4.0375C12.2257 3.75571 12.337 3.48546 12.5353 3.2862C12.7335 3.08694 13.0024 2.975 13.2827 2.975ZM8.84311 4.25C9.9645 4.25 11.04 4.69777 11.8329 5.4948C12.6258 6.29183 13.0713 7.37283 13.0713 8.5C13.0713 9.62717 12.6258 10.7082 11.8329 11.5052C11.04 12.3022 9.9645 12.75 8.84311 12.75C7.72173 12.75 6.64627 12.3022 5.85333 11.5052C5.06039 10.7082 4.61492 9.62717 4.61492 8.5C4.61492 7.37283 5.06039 6.29183 5.85333 5.4948C6.64627 4.69777 7.72173 4.25 8.84311 4.25ZM8.84311 5.95C8.17028 5.95 7.52501 6.21866 7.04924 6.69688C6.57348 7.1751 6.3062 7.8237 6.3062 8.5C6.3062 9.1763 6.57348 9.82491 7.04924 10.3031C7.52501 10.7813 8.17028 11.05 8.84311 11.05C9.51595 11.05 10.1612 10.7813 10.637 10.3031C11.1128 9.82491 11.38 9.1763 11.38 8.5C11.38 7.8237 11.1128 7.1751 10.637 6.69688C10.1612 6.21866 9.51595 5.95 8.84311 5.95Z" fill="black"/>
</svg>
