<svg width="18" height="17" viewBox="0 0 18 17" fill="none" xmlns="http://www.w3.org/2000/svg">
<path d="M6.42205 16.609C7.23387 16.8555 8.05414 17 8.92515 17C11.1679 17 13.3188 16.1045 14.9047 14.5104C16.4906 12.9163 17.3815 10.7543 17.3815 8.5C17.3815 7.38376 17.1628 6.27846 16.7378 5.24719C16.3129 4.21592 15.69 3.27889 14.9047 2.48959C14.1195 1.70029 13.1872 1.07419 12.1613 0.647024C11.1353 0.219859 10.0357 0 8.92515 0C7.81464 0 6.715 0.219859 5.68902 0.647024C4.66305 1.07419 3.73082 1.70029 2.94557 2.48959C1.35969 4.08365 0.46875 6.24566 0.46875 8.5C0.46875 12.1125 2.72661 15.215 5.91467 16.439C5.83856 15.776 5.76245 14.6795 5.91467 13.923L6.88715 9.724C6.88715 9.724 6.64192 9.231 6.64192 8.449C6.64192 7.276 7.36917 6.4005 8.1979 6.4005C8.92515 6.4005 9.2634 6.936 9.2634 7.6245C9.2634 8.3555 8.78139 9.401 8.53615 10.404C8.39239 11.237 8.97588 11.968 9.82152 11.968C11.3268 11.968 12.4937 10.353 12.4937 8.075C12.4937 6.035 11.0392 4.641 8.95051 4.641C6.56581 4.641 5.16205 6.426 5.16205 8.3045C5.16205 9.0355 5.39883 9.775 5.78782 10.2595C5.86393 10.3105 5.86393 10.3785 5.83856 10.506L5.59333 11.4325C5.59333 11.577 5.50031 11.628 5.35655 11.526C4.27413 11.05 3.64835 9.503 3.64835 8.2535C3.64835 5.5675 5.54259 3.128 9.19575 3.128C12.1047 3.128 14.3711 5.2275 14.3711 8.0155C14.3711 10.9395 12.5699 13.2855 9.99065 13.2855C9.17038 13.2855 8.36702 12.8435 8.07951 12.325L7.51293 14.3395C7.31843 15.0705 6.78568 16.048 6.42205 16.6345V16.609Z" fill="black"/>
</svg>
