<svg width="16" height="17" viewBox="0 0 16 17" fill="none" xmlns="http://www.w3.org/2000/svg">
<path d="M12.1886 2.66333C11.5463 1.92631 11.1924 0.979797 11.1926 0H8.28928V11.7111C8.26689 12.3449 8.0007 12.9451 7.54678 13.3856C7.09285 13.826 6.48661 14.0721 5.85572 14.0722C4.52149 14.0722 3.41276 12.9767 3.41276 11.6167C3.41276 9.99222 4.97249 8.77389 6.57921 9.27444V6.29C3.33759 5.85556 0.5 8.38667 0.5 11.6167C0.5 14.7617 3.09329 17 5.84632 17C8.79666 17 11.1926 14.5917 11.1926 11.6167V5.67611C12.37 6.52597 13.7835 6.98194 15.2329 6.97944V4.06111C15.2329 4.06111 13.4665 4.14611 12.1886 2.66333Z" fill="black"/>
</svg>
