<svg width="22" height="17" viewBox="0 0 22 17" fill="none" xmlns="http://www.w3.org/2000/svg">
<path d="M21.7814 2C21.0154 2.35 20.1896 2.58 19.334 2.69C20.2095 2.16 20.886 1.32 21.2044 0.31C20.3787 0.81 19.4634 1.16 18.4984 1.36C17.7124 0.5 16.6081 0 15.3546 0C13.0166 0 11.1065 1.92 11.1065 4.29C11.1065 4.63 11.1463 4.96 11.2159 5.27C7.67417 5.09 4.52044 3.38 2.42126 0.79C2.05316 1.42 1.84424 2.16 1.84424 2.94C1.84424 4.43 2.59039 5.75 3.74444 6.5C3.03808 6.5 2.38147 6.3 1.80444 6V6.03C1.80444 8.11 3.27685 9.85 5.22679 10.24C4.60086 10.4129 3.94345 10.4369 3.30669 10.31C3.57691 11.1625 4.10611 11.9084 4.81991 12.4429C5.53371 12.9775 6.39621 13.2737 7.28617 13.29C5.77762 14.4905 3.90761 15.1394 1.98352 15.13C1.64526 15.13 1.30701 15.11 0.96875 15.07C2.859 16.29 5.10741 17 7.51499 17C15.3546 17 19.6624 10.46 19.6624 4.79C19.6624 4.6 19.6624 4.42 19.6524 4.23C20.4881 3.63 21.2044 2.87 21.7814 2Z" fill="black"/>
</svg>
