<svg width="25" height="17" viewBox="0 0 25 17" fill="none" xmlns="http://www.w3.org/2000/svg">
<path d="M10.5082 12.1429L16.778 8.5L10.5082 4.85714V12.1429ZM24.4733 2.635C24.6304 3.20571 24.7391 3.97071 24.8116 4.94214C24.8962 5.91357 24.9324 6.75143 24.9324 7.48L25.0049 8.5C25.0049 11.1593 24.8116 13.1143 24.4733 14.365C24.1713 15.4579 23.4706 16.1621 22.3834 16.4657C21.8156 16.6236 20.7767 16.7329 19.182 16.8057C17.6116 16.8907 16.174 16.9271 14.8451 16.9271L12.9243 17C7.86256 17 4.70953 16.8057 3.46523 16.4657C2.37798 16.1621 1.67731 15.4579 1.37529 14.365C1.21825 13.7943 1.10952 13.0293 1.03704 12.0579C0.952475 11.0864 0.916233 10.2486 0.916233 9.52L0.84375 8.5C0.84375 5.84071 1.03704 3.88571 1.37529 2.635C1.67731 1.54214 2.37798 0.837857 3.46523 0.534286C4.03302 0.376429 5.07195 0.267143 6.66658 0.194286C8.23705 0.109286 9.67464 0.0728571 11.0035 0.0728571L12.9243 0C17.9861 0 21.1391 0.194286 22.3834 0.534286C23.4706 0.837857 24.1713 1.54214 24.4733 2.635Z" fill="black"/>
</svg>
