<svg width="173" height="221" viewBox="0 0 173 221" fill="none" xmlns="http://www.w3.org/2000/svg">
<path d="M0.799805 25.35C0.799805 11.3496 12.1494 0 26.1498 0H57.3498V134.55H28.0998C13.0224 134.55 0.799805 122.327 0.799805 107.25V25.35Z" fill="#FD9052"/>
<path fill-rule="evenodd" clip-rule="evenodd" d="M61.2496 220.35C122.636 220.35 172.4 170.587 172.4 109.2V101.4C172.4 45.3983 127.001 6.08915e-06 70.9997 1.19332e-06L57.3496 0L57.3496 68.25L64.1478 68.25C86.2402 68.25 104.15 86.1594 104.15 108.252C104.15 132.469 84.5181 152.1 60.3015 152.1H57.3496L57.3496 220.35H61.2496Z" fill="#FD9052"/>
<rect x="0.799805" y="152.1" width="56.55" height="68.25" fill="#FD9052"/>
</svg>
