<svg width="24" height="31" viewBox="0 0 24 31" fill="none" xmlns="http://www.w3.org/2000/svg">
<path d="M21.2267 2.17992C20.96 1.39325 20.2133 0.833252 19.3333 0.833252H4.66667C3.78667 0.833252 3.05333 1.39325 2.77333 2.17992L0 10.1666V20.8333C0 21.5666 0.6 22.1666 1.33333 22.1666H2.66667C3.4 22.1666 4 21.5666 4 20.8333V19.4999H20V20.8333C20 21.5666 20.6 22.1666 21.3333 22.1666H22.6667C23.4 22.1666 24 21.5666 24 20.8333V10.1666L21.2267 2.17992ZM5.13333 3.49992H18.8533L20.2933 7.64659H3.69333L5.13333 3.49992ZM21.3333 16.8333H2.66667V10.1666H21.3333V16.8333Z" fill="#5C5C5C"/>
<path d="M6 15.5C7.10457 15.5 8 14.6046 8 13.5C8 12.3954 7.10457 11.5 6 11.5C4.89543 11.5 4 12.3954 4 13.5C4 14.6046 4.89543 15.5 6 15.5Z" fill="#5C5C5C"/>
<path d="M18 15.5C19.1046 15.5 20 14.6046 20 13.5C20 12.3954 19.1046 11.5 18 11.5C16.8954 11.5 16 12.3954 16 13.5C16 14.6046 16.8954 15.5 18 15.5Z" fill="#5C5C5C"/>
<path d="M5.33594 26.1667H10.6693V23.5L18.6693 27.5H13.3359V30.1667L5.33594 26.1667Z" fill="#5C5C5C"/>
</svg>
