<svg width="26" height="27" viewBox="0 0 26 27" fill="none" xmlns="http://www.w3.org/2000/svg">
<path fill-rule="evenodd" clip-rule="evenodd" d="M8.26698 8.83021C7.7619 8.83021 7.28106 9.02641 6.92934 9.37002C6.57824 9.71303 6.38459 10.1742 6.38459 10.6508V16.8159C6.38459 17.2926 6.57824 17.7537 6.92934 18.0967C7.28106 18.4403 7.7619 18.6365 8.26698 18.6365H9.8446C10.1119 18.6365 10.3286 18.8565 10.3286 19.1278V20.5886L13.5466 18.7024C13.6202 18.6592 13.7037 18.6365 13.7886 18.6365H17.7327C18.2378 18.6365 18.7186 18.4403 19.0703 18.0967C19.4214 17.7537 19.6151 17.2926 19.6151 16.8159V10.6508C19.6151 10.1742 19.4214 9.71303 19.0703 9.37002C18.7186 9.02641 18.2378 8.83021 17.7327 8.83021H8.26698ZM6.25798 8.66213C6.79384 8.13861 7.51682 7.84766 8.26698 7.84766H17.7327C18.4829 7.84766 19.2058 8.13861 19.7417 8.66213C20.2782 9.18625 20.5832 9.90121 20.5832 10.6508V16.8159C20.5832 17.5655 20.2782 18.2805 19.7417 18.8046C19.2058 19.3281 18.4829 19.6191 17.7327 19.6191H13.9184L10.0867 21.8651C9.93692 21.9529 9.75239 21.9529 9.60261 21.8652C9.45283 21.7774 9.36055 21.6152 9.36055 21.4397V19.6191H8.26698C7.51682 19.6191 6.79384 19.3281 6.25798 18.8046C5.72149 18.2805 5.4165 17.5655 5.4165 16.8159V10.6508C5.4165 9.90121 5.72149 9.18625 6.25798 8.66213ZM9.36055 12.1921C9.36055 11.9208 9.57727 11.7008 9.8446 11.7008H16.1551C16.4224 11.7008 16.6391 11.9208 16.6391 12.1921C16.6391 12.4634 16.4224 12.6834 16.1551 12.6834H9.8446C9.57727 12.6834 9.36055 12.4634 9.36055 12.1921ZM9.36055 15.2746C9.36055 15.0033 9.57727 14.7834 9.8446 14.7834H14.5775C14.8448 14.7834 15.0615 15.0033 15.0615 15.2746C15.0615 15.546 14.8448 15.7659 14.5775 15.7659H9.8446C9.57727 15.7659 9.36055 15.546 9.36055 15.2746Z" fill="#5C5C5C"/>
<path fill-rule="evenodd" clip-rule="evenodd" d="M6.06904 8.46842C6.65616 7.89483 7.44734 7.57684 8.2673 7.57684H17.733C18.553 7.57684 19.3442 7.89483 19.9313 8.46842C20.5192 9.04281 20.8543 9.82732 20.8543 10.6509V16.8159C20.8543 17.6395 20.5192 18.424 19.9313 18.9984C19.3442 19.572 18.553 19.8899 17.733 19.8899H13.9922L10.224 22.0988C9.98964 22.2362 9.70037 22.2362 9.46602 22.0989C9.23215 21.9619 9.09005 21.7101 9.09005 21.4397V19.8899H8.2673C7.44734 19.8899 6.65616 19.572 6.06904 18.9984C5.4811 18.424 5.146 17.6395 5.146 16.8159V10.6509C5.146 9.82732 5.4811 9.04281 6.06904 8.46842ZM8.2673 8.11851C7.58695 8.11851 6.93217 8.38244 6.44757 8.85587C5.96253 9.32974 5.68766 9.97514 5.68766 10.6509V16.8159C5.68766 17.4916 5.96253 18.137 6.44757 18.6109C6.93217 19.0843 7.58695 19.3483 8.2673 19.3483H9.36088C9.51046 19.3483 9.63171 19.4695 9.63171 19.6191V21.4397C9.63171 21.5204 9.67415 21.593 9.73984 21.6315L9.61979 21.8364L9.73984 21.6315C9.80505 21.6697 9.88484 21.6697 9.95004 21.6315L13.7817 19.3855C13.8233 19.3611 13.8706 19.3483 13.9187 19.3483H17.733C18.4134 19.3483 19.0682 19.0843 19.5528 18.6109C20.0378 18.137 20.3127 17.4916 20.3127 16.8159V10.6509C20.3127 9.97514 20.0378 9.32974 19.5528 8.85587C19.0682 8.38244 18.4134 8.11851 17.733 8.11851H8.2673ZM8.2673 9.10107C7.83207 9.10107 7.41941 9.27021 7.11893 9.56377C6.81932 9.85648 6.65575 10.248 6.65575 10.6509V16.8159C6.65575 17.2187 6.81932 17.6103 7.11893 17.903C7.41941 18.1966 7.83207 18.3657 8.2673 18.3657H9.84492C10.2656 18.3657 10.5998 18.7107 10.5998 19.1278V20.116L13.4099 18.4688C13.5249 18.4014 13.6556 18.3657 13.789 18.3657H17.733C18.1683 18.3657 18.5809 18.1966 18.8814 17.903C19.181 17.6103 19.3446 17.2187 19.3446 16.8159V10.6509C19.3446 10.248 19.181 9.85648 18.8814 9.56377C18.5809 9.27021 18.1683 9.10107 17.733 9.10107H8.2673ZM6.7404 9.17632C7.14336 8.78265 7.69239 8.5594 8.2673 8.5594H17.733C18.3079 8.5594 18.857 8.78265 19.2599 9.17632C19.6625 9.56962 19.8862 10.1003 19.8862 10.6509V16.8159C19.8862 17.3665 19.6625 17.8972 19.2599 18.2905C18.857 18.6841 18.3079 18.9074 17.733 18.9074H13.789C13.7523 18.9074 13.7161 18.9172 13.6839 18.9361L10.4659 20.8223C10.3822 20.8714 10.2786 20.8719 10.1943 20.8237C10.1101 20.7754 10.0581 20.6858 10.0581 20.5887V19.1278C10.0581 19.0023 9.9589 18.9074 9.84492 18.9074H8.2673C7.69239 18.9074 7.14336 18.6841 6.7404 18.2905C6.33782 17.8972 6.11408 17.3665 6.11408 16.8159V10.6509C6.11408 10.1003 6.33782 9.56962 6.7404 9.17632ZM9.09005 12.1921C9.09005 11.775 9.42424 11.43 9.84492 11.43H16.1554C16.5761 11.43 16.9103 11.775 16.9103 12.1921C16.9103 12.6092 16.5761 12.9542 16.1554 12.9542H9.84492C9.42424 12.9542 9.09005 12.6092 9.09005 12.1921ZM9.84492 11.9717C9.73094 11.9717 9.63171 12.0666 9.63171 12.1921C9.63171 12.3177 9.73094 12.4126 9.84492 12.4126H16.1554C16.2694 12.4126 16.3686 12.3177 16.3686 12.1921C16.3686 12.0666 16.2694 11.9717 16.1554 11.9717H9.84492ZM9.09005 15.2747C9.09005 14.8576 9.42424 14.5125 9.84492 14.5125H14.5778C14.9985 14.5125 15.3327 14.8576 15.3327 15.2747C15.3327 15.6918 14.9985 16.0368 14.5778 16.0368H9.84492C9.42424 16.0368 9.09005 15.6918 9.09005 15.2747ZM9.84492 15.0542C9.73094 15.0542 9.63171 15.1491 9.63171 15.2747C9.63171 15.4002 9.73094 15.4951 9.84492 15.4951H14.5778C14.6918 15.4951 14.791 15.4002 14.791 15.2747C14.791 15.1491 14.6918 15.0542 14.5778 15.0542H9.84492Z" fill="#5C5C5C"/>
</svg>
