<svg width="22" height="22" viewBox="0 0 22 22" fill="none" xmlns="http://www.w3.org/2000/svg">
<g clip-path="url(#clip0_190_511)">
<path d="M3.22536 18.7769C2.17475 17.7622 1.33674 16.5484 0.760242 15.2064C0.183743 13.8643 -0.119705 12.4209 -0.132397 10.9603C-0.145089 9.49976 0.13323 8.05128 0.686319 6.69942C1.23941 5.34756 2.05619 4.11939 3.08901 3.08657C4.12183 2.05375 5.35 1.23697 6.70186 0.683878C8.05372 0.130788 9.5022 -0.147531 10.9628 -0.134839C12.4233 -0.122147 13.8668 0.181302 15.2088 0.757801C16.5509 1.3343 17.7646 2.1723 18.7794 3.22292C20.7831 5.29754 21.8918 8.07617 21.8668 10.9603C21.8417 13.8445 20.6849 16.6034 18.6454 18.6429C16.6059 20.6824 13.8469 21.8393 10.9628 21.8643C8.07861 21.8894 5.29998 20.7807 3.22536 18.7769ZM17.2284 17.2259C18.8796 15.5747 19.8073 13.3351 19.8073 10.9999C19.8073 8.66471 18.8796 6.42515 17.2284 4.77392C15.5771 3.12268 13.3376 2.19502 11.0024 2.19502C8.66716 2.19502 6.4276 3.12268 4.77636 4.77392C3.12512 6.42515 2.19746 8.66471 2.19746 10.9999C2.19746 13.3351 3.12512 15.5747 4.77636 17.2259C6.4276 18.8772 8.66716 19.8048 11.0024 19.8048C13.3376 19.8048 15.5771 18.8772 17.2284 17.2259ZM7.37236 10.2189L9.90236 12.7599L14.6324 8.02992L16.1724 9.59192L9.90236 15.8399L5.83236 11.7699L7.37236 10.2079V10.2189Z" fill="#5C5C5C"/>
</g>
<defs>
<clipPath id="clip0_190_511">
<rect width="22" height="22" fill="white"/>
</clipPath>
</defs>
</svg>
