<svg width="27" height="27" viewBox="0 0 27 27" fill="none" xmlns="http://www.w3.org/2000/svg">
<path fill-rule="evenodd" clip-rule="evenodd" d="M17.2672 10.4877C17.5839 10.7826 17.6004 11.2772 17.3041 11.5923L13.5423 15.5933C12.8987 16.2779 11.7983 16.2484 11.1925 15.5303L9.43424 13.4463C9.15533 13.1157 9.19851 12.6228 9.53068 12.3453C9.86284 12.0677 10.3582 12.1108 10.6371 12.4413L12.3954 14.5254L16.1572 10.5244C16.4535 10.2092 16.9504 10.1928 17.2672 10.4877Z" fill="#5C5C5C"/>
<path d="M7.11647 18.7069C6.29954 17.9055 5.65115 16.9503 5.20915 15.8969C4.76715 14.8435 4.54038 13.713 4.54208 12.5715C4.54378 11.43 4.77391 10.3003 5.21904 9.24829C5.66418 8.19628 6.3154 7.24305 7.13472 6.44421C7.95403 5.64538 8.92503 5.01694 9.99106 4.59556C11.0571 4.17418 12.1968 3.96831 13.3437 3.98995C14.4905 4.01159 15.6216 4.26032 16.6709 4.72161C17.7202 5.1829 18.6667 5.84752 19.4552 6.67669C21.0121 8.31405 21.8606 10.4944 21.8179 12.7481C21.7752 15.0018 20.8447 17.1485 19.2268 18.726C17.6089 20.3034 15.4331 21.1853 13.168 21.1818C10.9028 21.1782 8.72966 20.2895 7.11647 18.7069ZM18.1253 17.6073C19.4352 16.3301 20.1816 14.5874 20.2002 12.7625C20.2189 10.9376 19.5083 9.17997 18.2248 7.87631C16.9413 6.57266 15.19 5.82974 13.3561 5.811C11.5223 5.79226 9.7562 6.49922 8.4463 7.77638C7.13641 9.05353 6.39004 10.7962 6.37139 12.6211C6.35274 14.4461 7.06333 16.2037 8.34685 17.5073C9.63037 18.811 11.3817 19.5539 13.2155 19.5726C15.0493 19.5914 16.8154 18.8844 18.1253 17.6073Z" fill="#5C5C5C"/>
</svg>
