<svg width="31" height="26" viewBox="0 0 31 26" fill="none" xmlns="http://www.w3.org/2000/svg">
<path d="M28.5397 10H27.1865L22.9831 5.7325C22.7552 5.49956 22.4842 5.31487 22.1856 5.18913C21.887 5.06339 21.5668 4.99911 21.2436 5H17.2222V3H19.6825C20.074 3 20.4495 2.84196 20.7264 2.56066C21.0032 2.27936 21.1587 1.89782 21.1587 1.5C21.1587 1.10217 21.0032 0.720644 20.7264 0.43934C20.4495 0.158035 20.074 0 19.6825 0H11.8095C11.418 0 11.0425 0.158035 10.7657 0.43934C10.4889 0.720644 10.3333 1.10217 10.3333 1.5C10.3333 1.89782 10.4889 2.27936 10.7657 2.56066C11.0425 2.84196 11.418 3 11.8095 3H14.2698V5H7.38095C6.72844 5 6.10264 5.26339 5.64125 5.73223C5.17985 6.20107 4.92063 6.83696 4.92063 7.5V13.5H2.95238V11C2.95238 10.6022 2.79685 10.2206 2.52001 9.93934C2.24318 9.65803 1.8677 9.5 1.47619 9.5C1.08468 9.5 0.709206 9.65803 0.432366 9.93934C0.155527 10.2206 5.83395e-09 10.6022 0 11V19C5.83395e-09 19.3978 0.155527 19.7793 0.432366 20.0607C0.709206 20.342 1.08468 20.5 1.47619 20.5C1.8677 20.5 2.24318 20.342 2.52001 20.0607C2.79685 19.7793 2.95238 19.3978 2.95238 19V16.5H4.92063V18.5862C4.91976 18.9147 4.98303 19.24 5.10677 19.5434C5.23051 19.8468 5.41226 20.1222 5.64151 20.3537L10.4773 25.2675C10.7051 25.5004 10.9762 25.6851 11.2747 25.8109C11.5733 25.9366 11.8935 26.0009 12.2167 26H21.2436C21.5668 26.0009 21.887 25.9366 22.1856 25.8109C22.4842 25.6851 22.7552 25.5004 22.9831 25.2675L27.1865 21H28.5397C29.1922 21 29.818 20.7366 30.2794 20.2678C30.7408 19.7989 31 19.163 31 18.5V12.5C31 11.837 30.7408 11.2011 30.2794 10.7322C29.818 10.2634 29.1922 10 28.5397 10ZM28.0476 18H26.5714C26.3775 17.9998 26.1855 18.0385 26.0063 18.1138C25.8271 18.1891 25.6642 18.2995 25.527 18.4387L21.0357 23H12.4246L7.87302 18.375V8H21.0357L25.5233 12.5612C25.661 12.7009 25.8244 12.8116 26.0043 12.8869C26.1842 12.9622 26.3769 13.0006 26.5714 13H28.0476V18Z" fill="#5C5C5C"/>
</svg>
