<svg width="26" height="26" viewBox="0 0 26 26" fill="none" xmlns="http://www.w3.org/2000/svg">
<path d="M12.3158 0C12.6646 0.000432376 13 0.149698 13.2537 0.417298C13.5073 0.684897 13.6599 1.05063 13.6803 1.43978C13.7008 1.82893 13.5875 2.21211 13.3636 2.51104C13.1398 2.80997 12.8222 3.00208 12.4759 3.04812L12.3158 3.05882H10.9474V4.58824H14.7297C15.0691 4.58822 15.4055 4.65875 15.7218 4.79624L15.9544 4.91094L20.3813 7.38553C20.8027 7.62071 21.1626 7.97345 21.4263 8.40964C21.69 8.84583 21.8485 9.3507 21.8865 9.87541L21.8947 10.1216V13.7647H23.2632V12.2353C23.2635 11.8455 23.3971 11.4705 23.6365 11.1871C23.876 10.9036 24.2032 10.7331 24.5514 10.7102C24.8996 10.6874 25.2424 10.814 25.5099 11.0642C25.7773 11.3144 25.9492 11.6693 25.9904 12.0564L26 12.2353V18.3529C25.9996 18.7428 25.8661 19.1177 25.6266 19.4012C25.3872 19.6846 25.06 19.8552 24.7118 19.878C24.3636 19.9009 24.0207 19.7743 23.7533 19.5241C23.4858 19.2739 23.3139 18.919 23.2727 18.5319L23.2632 18.3529V16.8235H21.8947V19.1176C21.8948 19.5485 21.8133 19.9745 21.6558 20.3677C21.4983 20.761 21.2682 21.1126 20.9806 21.3995L20.8 21.5647L16.2391 25.3882C15.834 25.7274 15.3527 25.9344 14.8487 25.9862L14.5969 26H2.73684C2.04637 26.0002 1.38133 25.7088 0.87504 25.1841C0.368749 24.6593 0.0586278 23.9401 0.0068424 23.1706L1.37209e-07 22.9412V7.64706C-0.000218372 6.87535 0.260556 6.13207 0.730048 5.56622C1.19954 5.00037 1.84305 4.65376 2.53158 4.59588L2.73684 4.58824H8.21053V3.05882H6.84211C6.49332 3.05839 6.15785 2.90913 5.90423 2.64153C5.65061 2.37393 5.49799 2.00819 5.47755 1.61904C5.45711 1.2299 5.5704 0.846714 5.79426 0.547785C6.01812 0.248857 6.33566 0.0567467 6.682 0.0107058L6.84211 0H12.3158ZM14.7297 7.64706H2.73684V22.9412H14.5969L19.1579 19.1176V10.1216L14.7297 7.64706ZM9.09042 10.6845C9.27048 10.3511 9.55753 10.107 9.89305 10.0021C10.2286 9.89709 10.5873 9.93911 10.896 10.1195C11.2048 10.3 11.4403 10.6053 11.5546 10.9731C11.6689 11.341 11.6534 11.7437 11.5112 12.0992L11.4359 12.2582L10.6285 13.7647H12.2912C13.312 13.7647 13.962 14.9469 13.5501 15.9472L13.4762 16.1047L11.4373 19.9053C11.2593 20.2439 10.9717 20.493 10.634 20.601C10.2963 20.7091 9.93427 20.6679 9.62298 20.4859C9.3117 20.3039 9.07497 19.995 8.96182 19.6233C8.84867 19.2516 8.86777 18.8455 9.01516 18.4891L9.09042 18.33L9.89779 16.8235H8.23653C8.00538 16.8236 7.77791 16.7588 7.57495 16.6352C7.37199 16.5115 7.20002 16.333 7.07477 16.1158C6.94952 15.8987 6.87499 15.6499 6.85801 15.3923C6.84103 15.1346 6.88214 14.8764 6.97758 14.6411L7.05147 14.4835L9.09042 10.6845Z" fill="#5C5C5C"/>
</svg>
