<svg width="19" height="20" viewBox="0 0 19 20" fill="none" xmlns="http://www.w3.org/2000/svg">
<path d="M13.1538 8.45448C13.1538 7.04622 12.6533 5.8416 11.6523 4.84059C10.6513 3.83959 9.44671 3.33909 8.03846 3.33909C6.63021 3.33909 5.42558 3.83959 4.42458 4.84059C3.42358 5.8416 2.92308 7.04622 2.92308 8.45448C2.92308 9.86273 3.42358 11.0674 4.42458 12.0684C5.42558 13.0694 6.63021 13.5699 8.03846 13.5699C9.44671 13.5699 10.6513 13.0694 11.6523 12.0684C12.6533 11.0674 13.1538 9.86273 13.1538 8.45448ZM19 17.9545C19 18.3503 18.8554 18.6929 18.5661 18.9821C18.2768 19.2714 17.9343 19.416 17.5385 19.416C17.1274 19.416 16.7849 19.2714 16.5108 18.9821L12.5944 15.0771C11.2318 16.021 9.71314 16.4929 8.03846 16.4929C6.94992 16.4929 5.90895 16.2817 4.91557 15.8592C3.92218 15.4367 3.06581 14.8658 2.34645 14.1465C1.6271 13.4271 1.05619 12.5708 0.633714 11.5774C0.211238 10.584 0 9.54302 0 8.45448C0 7.36594 0.211238 6.32497 0.633714 5.33158C1.05619 4.33819 1.6271 3.48182 2.34645 2.76247C3.06581 2.04312 3.92218 1.47221 4.91557 1.04973C5.90895 0.627254 6.94992 0.416016 8.03846 0.416016C9.127 0.416016 10.168 0.627254 11.1614 1.04973C12.1547 1.47221 13.0111 2.04312 13.7305 2.76247C14.4498 3.48182 15.0207 4.33819 15.4432 5.33158C15.8657 6.32497 16.0769 7.36594 16.0769 8.45448C16.0769 10.1292 15.605 11.6478 14.6611 13.0104L18.5775 16.9268C18.8592 17.2085 19 17.551 19 17.9545Z" fill="white"/>
</svg>
