<svg width="26" height="27" viewBox="0 0 26 27" fill="none" xmlns="http://www.w3.org/2000/svg">
<path fill-rule="evenodd" clip-rule="evenodd" d="M18.9652 17.5263C18.9654 17.526 18.9656 17.5257 18.9658 17.5254C19.8519 16.2894 20.3347 14.8003 20.3336 13.2643C20.3336 9.21511 17.0387 5.92167 12.9827 5.93167C8.92659 5.94167 5.59966 9.3351 5.66757 13.3893C5.69229 14.882 6.17346 16.3236 7.0352 17.5251C7.03499 17.5248 7.03541 17.5254 7.0352 17.5251C7.06617 17.5683 7.09825 17.612 7.13019 17.6546C7.13723 17.6639 7.14429 17.6733 7.15137 17.6826C7.29541 17.8725 7.44922 18.0559 7.61248 18.2322C7.62908 18.2501 7.64942 18.2642 7.67207 18.2734C7.69471 18.2826 7.71911 18.2867 7.74352 18.2855C7.76793 18.2842 7.79176 18.2776 7.81333 18.266C7.8349 18.2545 7.85366 18.2384 7.86831 18.2188C8.24097 17.7314 8.69736 17.3141 9.21616 16.9865C10.2769 16.3057 11.621 15.9307 13.0006 15.9307C14.3801 15.9307 15.7242 16.3057 16.785 16.9865C17.3038 17.3143 17.7601 17.7317 18.1328 18.2193C18.1475 18.2388 18.1662 18.255 18.1878 18.2665C18.2094 18.278 18.2332 18.2846 18.2576 18.2859C18.282 18.2871 18.3064 18.283 18.3291 18.2738C18.3517 18.2646 18.3721 18.2505 18.3887 18.2326C18.5518 18.0564 18.7055 17.8731 18.8494 17.6833C18.8564 17.6741 18.8634 17.6648 18.8704 17.6554C18.9025 17.6127 18.9341 17.5697 18.9652 17.5263ZM17.683 19.225C17.6812 19.2241 17.6794 19.2231 17.6776 19.2222C17.5184 19.1372 17.3796 19.0187 17.2706 18.8751C16.9761 18.4904 16.6158 18.161 16.2063 17.9023L16.1998 17.8982C15.33 17.34 14.193 17.0141 13.0006 17.0141C11.8081 17.0141 10.6711 17.34 9.80127 17.8982L9.79463 17.9025C9.38523 18.161 9.02496 18.4901 8.73063 18.8746C8.62158 19.0183 8.48269 19.1368 8.32349 19.2217C8.32315 19.2219 8.32281 19.2221 8.32248 19.2223C9.5875 20.2188 11.1742 20.823 12.8948 20.8469C14.7012 20.8716 16.3671 20.2611 17.683 19.225ZM13.1214 4.59846C8.24745 4.53263 4.26847 8.51143 4.3343 13.3851C4.3993 18.0593 8.20537 21.8652 12.8797 21.9302C17.7545 21.9968 21.7327 18.018 21.666 13.1443C21.6018 8.46935 17.7958 4.66346 13.1214 4.59846Z" fill="#5C5C5C"/>
<path fill-rule="evenodd" clip-rule="evenodd" d="M13.2277 9.78713C12.6599 9.78713 12.1902 9.99624 11.8682 10.3375C11.5512 10.6735 11.3684 11.1621 11.4093 11.7361C11.5013 12.9739 12.4388 13.7784 13.2277 13.7784C14.0156 13.7784 14.9525 12.9747 15.0463 11.7342C15.0882 11.1754 14.9121 10.6928 14.5821 10.3422M16.1266 11.8152C16.0001 13.4933 14.7022 14.8617 13.2277 14.8617C11.7533 14.8617 10.4528 13.4933 10.3288 11.8148C10.2677 10.9625 10.5384 10.1684 11.0802 9.59413C11.622 9.01982 12.3844 8.7038 13.2277 8.7038C14.0655 8.7038 14.8266 9.02195 15.3706 9.59926C15.9214 10.1843 16.1899 10.9711 16.1266 11.8152ZM13.2277 9.78713C13.7855 9.78713 14.2551 9.99525 14.5818 10.3419L13.2277 9.78713Z" fill="#5C5C5C"/>
</svg>
