<svg width="35" height="40" viewBox="0 0 35 40" fill="none" xmlns="http://www.w3.org/2000/svg">
<path d="M29.2543 21.32C29.2021 16.3819 33.566 14.0128 33.7617 13.8958C31.3083 10.5445 27.4873 10.0838 26.1249 10.0326C22.8728 9.72552 19.7799 11.8216 18.1278 11.8216C16.4809 11.8216 13.9335 10.0789 11.2374 10.1252C7.69301 10.174 4.42529 12.0507 2.59829 15.0146C-1.08443 20.9812 1.65607 29.8239 5.24483 34.662C6.99875 37.0311 9.08936 39.6927 11.8351 39.5976C14.479 39.5001 15.4787 37.9987 18.6759 37.9987C21.8732 37.9987 22.771 39.5976 25.5689 39.5464C28.4138 39.4977 30.2173 37.131 31.9582 34.7546C33.9731 32.0053 34.8005 29.3461 34.8501 29.2097C34.7875 29.1828 29.3012 27.2208 29.2464 21.3224L29.2543 21.32ZM23.9977 6.82752C25.4541 5.17743 26.4381 2.88633 26.1692 0.600098C24.0708 0.68053 21.526 1.90651 20.0201 3.55416C18.6681 5.01657 17.4857 7.34911 17.8016 9.58903C20.1453 9.75964 22.5387 8.4776 23.9951 6.82995L23.9977 6.82752Z" fill="black"/>
</svg>
