<svg width="39" height="38" viewBox="0 0 39 38" fill="none" xmlns="http://www.w3.org/2000/svg">
<path d="M38.4805 15.7766H36.9501V15.6998H19.8501V23.0998H30.5879C29.0214 27.4075 24.8119 30.4998 19.8501 30.4998C13.5544 30.4998 8.4501 25.5298 8.4501 19.3998C8.4501 13.2699 13.5544 8.29986 19.8501 8.29986C22.7561 8.29986 25.4 9.36731 27.413 11.1109L32.7872 5.87823C29.3938 2.79892 24.8547 0.899902 19.8501 0.899902C9.35735 0.899902 0.850098 9.18324 0.850098 19.3998C0.850098 29.6164 9.35735 37.8997 19.8501 37.8997C30.3428 37.8997 38.8501 29.6164 38.8501 19.3998C38.8501 18.1594 38.719 16.9486 38.4805 15.7766Z" fill="#FFC107"/>
<path d="M3.04053 10.789L9.28298 15.2466C10.9721 11.1748 15.0628 8.29986 19.8498 8.29986C22.7559 8.29986 25.3997 9.36731 27.4128 11.1109L32.7869 5.87823C29.3935 2.79892 24.8544 0.899902 19.8498 0.899902C12.5519 0.899902 6.22303 4.91161 3.04053 10.789Z" fill="#FF3D00"/>
<path d="M19.8503 37.8998C24.758 37.8998 29.2173 36.0711 32.5888 33.0973L26.7083 28.2521C24.7367 29.7121 22.3274 30.5018 19.8503 30.4999C14.9084 30.4999 10.7122 27.4317 9.13145 23.1499L2.93555 27.798C6.08005 33.7892 12.4659 37.8998 19.8503 37.8998Z" fill="#4CAF50"/>
<path d="M38.4805 15.7765H36.9501V15.6997H19.8501V23.0997H30.5879C29.8386 25.1498 28.4888 26.9413 26.7053 28.2528L26.7081 28.251L32.5886 33.0961C32.1725 33.4642 38.8501 28.6496 38.8501 19.3997C38.8501 18.1593 38.719 16.9485 38.4805 15.7765Z" fill="#1976D2"/>
</svg>
