<svg width="19" height="17" viewBox="0 0 19 17" fill="none" xmlns="http://www.w3.org/2000/svg">
<mask id="path-1-inside-1_101_9631" fill="white">
<path fill-rule="evenodd" clip-rule="evenodd" d="M0 5.77448C0 2.79517 2.57314 0.5 5.59143 0.5C7.14726 0.5 8.51743 1.24152 9.5 2.20152C10.4826 1.24152 11.8517 0.5 13.4086 0.5C16.4269 0.5 19 2.79517 19 5.77448C19 7.81586 18.1434 9.61007 16.9567 11.1284C15.7733 12.6423 14.2229 13.9279 12.7398 14.9728C12.1719 15.3723 11.5998 15.7397 11.0743 16.0112C10.5825 16.2661 10.0157 16.5 9.5 16.5C8.98429 16.5 8.41863 16.2661 7.92571 16.0112C7.34928 15.7022 6.7933 15.3554 6.26131 14.9728C4.77714 13.9279 3.22783 12.6423 2.04331 11.1284C0.856629 9.61007 0 7.81586 0 5.77448ZM5.59143 2.15517C3.33314 2.15517 1.62857 3.84345 1.62857 5.77448C1.62857 7.32262 2.27566 8.76483 3.31794 10.0978C4.3624 11.433 5.7684 12.6126 7.18852 13.6123C7.72594 13.9908 8.2308 14.3119 8.66509 14.537C9.12977 14.7775 9.39903 14.8448 9.5 14.8448C9.60097 14.8448 9.87023 14.7775 10.336 14.5359C10.8473 14.2607 11.3405 13.9522 11.8126 13.6123C13.2316 12.6126 14.6376 11.4341 15.6821 10.0978C16.7243 8.76483 17.3714 7.32262 17.3714 5.77448C17.3714 3.84345 15.6669 2.15517 13.4086 2.15517C12.1122 2.15517 10.9006 2.94193 10.146 3.94166C10.07 4.04236 9.97215 4.12394 9.86014 4.18008C9.74812 4.23622 9.6249 4.26542 9.5 4.26542C9.3751 4.26542 9.25188 4.23622 9.13986 4.18008C9.02785 4.12394 8.93004 4.04236 8.854 3.94166C8.09943 2.94193 6.88886 2.15517 5.59143 2.15517Z"/>
</mask>
<path fill-rule="evenodd" clip-rule="evenodd" d="M0 5.77448C0 2.79517 2.57314 0.5 5.59143 0.5C7.14726 0.5 8.51743 1.24152 9.5 2.20152C10.4826 1.24152 11.8517 0.5 13.4086 0.5C16.4269 0.5 19 2.79517 19 5.77448C19 7.81586 18.1434 9.61007 16.9567 11.1284C15.7733 12.6423 14.2229 13.9279 12.7398 14.9728C12.1719 15.3723 11.5998 15.7397 11.0743 16.0112C10.5825 16.2661 10.0157 16.5 9.5 16.5C8.98429 16.5 8.41863 16.2661 7.92571 16.0112C7.34928 15.7022 6.7933 15.3554 6.26131 14.9728C4.77714 13.9279 3.22783 12.6423 2.04331 11.1284C0.856629 9.61007 0 7.81586 0 5.77448ZM5.59143 2.15517C3.33314 2.15517 1.62857 3.84345 1.62857 5.77448C1.62857 7.32262 2.27566 8.76483 3.31794 10.0978C4.3624 11.433 5.7684 12.6126 7.18852 13.6123C7.72594 13.9908 8.2308 14.3119 8.66509 14.537C9.12977 14.7775 9.39903 14.8448 9.5 14.8448C9.60097 14.8448 9.87023 14.7775 10.336 14.5359C10.8473 14.2607 11.3405 13.9522 11.8126 13.6123C13.2316 12.6126 14.6376 11.4341 15.6821 10.0978C16.7243 8.76483 17.3714 7.32262 17.3714 5.77448C17.3714 3.84345 15.6669 2.15517 13.4086 2.15517C12.1122 2.15517 10.9006 2.94193 10.146 3.94166C10.07 4.04236 9.97215 4.12394 9.86014 4.18008C9.74812 4.23622 9.6249 4.26542 9.5 4.26542C9.3751 4.26542 9.25188 4.23622 9.13986 4.18008C9.02785 4.12394 8.93004 4.04236 8.854 3.94166C8.09943 2.94193 6.88886 2.15517 5.59143 2.15517Z" fill="#5C5C5C"/>
<path d="M9.5 2.20152L6.70463 5.06262L9.5 7.79377L12.2954 5.06262L9.5 2.20152ZM16.9567 11.1284L20.1081 13.5919L20.1083 13.5916L16.9567 11.1284ZM12.7398 14.9728L15.0412 18.2444L15.0437 18.2427L12.7398 14.9728ZM11.0743 16.0112L9.23849 12.4573L9.23373 12.4598L11.0743 16.0112ZM7.92571 16.0112L6.03616 19.5367L6.06216 19.5507L6.08836 19.5642L7.92571 16.0112ZM6.26131 14.9728L8.5966 11.7253L8.58041 11.7137L8.5641 11.7022L6.26131 14.9728ZM2.04331 11.1284L-1.1083 13.5916L-1.10701 13.5933L2.04331 11.1284ZM3.31794 10.0978L0.166886 12.5617L0.167396 12.5624L3.31794 10.0978ZM7.18852 13.6123L9.49168 10.3419L9.49108 10.3415L7.18852 13.6123ZM8.66509 14.537L6.82434 18.0883L6.82621 18.0892L8.66509 14.537ZM10.336 14.5359L12.1781 18.0864L12.205 18.0725L12.2317 18.0581L10.336 14.5359ZM11.8126 13.6123L9.50883 10.3423L9.49197 10.3542L9.47524 10.3662L11.8126 13.6123ZM15.6821 10.0978L12.531 7.63389L12.5305 7.6345L15.6821 10.0978ZM10.146 3.94166L13.3383 6.35195L13.3387 6.35141L10.146 3.94166ZM8.854 3.94166L5.66134 6.35141L5.66175 6.35195L8.854 3.94166ZM4 5.77448C4 5.48523 4.11316 5.20382 4.3834 4.95327C4.66773 4.68966 5.09545 4.5 5.59143 4.5V-3.5C0.654369 -3.5 -4 0.306439 -4 5.77448H4ZM5.59143 4.5C5.84975 4.5 6.26666 4.63471 6.70463 5.06262L12.2954 -0.659582C10.7682 -2.15168 8.44476 -3.5 5.59143 -3.5V4.5ZM12.2954 5.06262C12.7337 4.63436 13.1496 4.5 13.4086 4.5V-3.5C10.5538 -3.5 8.23144 -2.15133 6.70463 -0.659582L12.2954 5.06262ZM13.4086 4.5C13.9046 4.5 14.3323 4.68966 14.6166 4.95327C14.8868 5.20382 15 5.48523 15 5.77448H23C23 0.306439 18.3456 -3.5 13.4086 -3.5V4.5ZM15 5.77448C15 6.64395 14.643 7.59309 13.8051 8.66522L20.1083 13.5916C21.6437 11.627 23 8.98777 23 5.77448H15ZM13.8053 8.66497C12.9621 9.74359 11.7632 10.7677 10.4359 11.703L15.0437 18.2427C16.6825 17.088 18.5844 15.5411 20.1081 13.5919L13.8053 8.66497ZM10.4383 11.7012C9.94097 12.0511 9.53545 12.3039 9.23849 12.4573L12.9101 19.565C13.6641 19.1755 14.4029 18.6934 15.0412 18.2444L10.4383 11.7012ZM9.23373 12.4598C9.16614 12.4948 9.11308 12.5202 9.07251 12.5382C9.03136 12.5564 9.01355 12.5624 9.01673 12.5613C9.01902 12.5605 9.05875 12.547 9.13128 12.5329C9.20326 12.5189 9.32975 12.5 9.5 12.5V20.5C11.0463 20.5 12.35 19.8553 12.9148 19.5626L9.23373 12.4598ZM9.5 12.5C9.67033 12.5 9.79703 12.519 9.86934 12.533C9.94215 12.5472 9.98204 12.5607 9.98426 12.5615C9.98735 12.5625 9.96925 12.5565 9.92742 12.538C9.88615 12.5197 9.83216 12.4939 9.76307 12.4581L6.08836 19.5642C6.64915 19.8542 7.953 20.5 9.5 20.5V12.5ZM9.81527 12.4856C9.39364 12.2596 8.98653 12.0057 8.5966 11.7253L3.92603 18.2204C4.60006 18.7051 5.30492 19.1448 6.03616 19.5367L9.81527 12.4856ZM8.5641 11.7022C7.23768 10.7683 6.03878 9.74375 5.19364 8.66357L-1.10701 13.5933C0.416875 15.5409 2.31661 17.0874 3.95853 18.2435L8.5641 11.7022ZM5.19493 8.66522C4.35699 7.59309 4 6.64395 4 5.77448H-4C-4 8.98777 -2.64373 11.627 -1.1083 13.5916L5.19493 8.66522ZM5.59143 -1.84483C1.37522 -1.84483 -2.37143 1.39119 -2.37143 5.77448H5.62857C5.62857 6.01214 5.52299 6.13628 5.49736 6.16028C5.46319 6.19229 5.4759 6.15517 5.59143 6.15517V-1.84483ZM-2.37143 5.77448C-2.37143 8.4925 -1.22642 10.7798 0.166886 12.5617L6.469 7.63389C5.77774 6.74984 5.62857 6.15274 5.62857 5.77448H-2.37143ZM0.167396 12.5624C1.55118 14.3313 3.30759 15.772 4.88595 16.8831L9.49108 10.3415C8.22921 9.45314 7.17362 8.53463 6.46849 7.63323L0.167396 12.5624ZM4.88535 16.8827C5.49549 17.3123 6.16499 17.7465 6.82434 18.0883L10.5058 10.9857C10.2966 10.8772 9.9564 10.6692 9.49168 10.3419L4.88535 16.8827ZM6.82621 18.0892C7.1958 18.2805 7.56556 18.4439 7.93209 18.5685C8.19947 18.6593 8.78792 18.8448 9.5 18.8448V10.8448C9.69884 10.8448 9.85939 10.8606 9.96528 10.8743C10.0765 10.8886 10.1679 10.9059 10.2353 10.9204C10.3679 10.949 10.4605 10.9784 10.5058 10.9938C10.5963 11.0245 10.5991 11.0339 10.504 10.9847L6.82621 18.0892ZM9.5 18.8448C10.2129 18.8448 10.8019 18.6589 11.0703 18.5675C11.4376 18.4425 11.808 18.2785 12.1781 18.0864L8.49387 10.9853C8.39828 11.0349 8.40114 11.0253 8.49209 10.9944C8.5376 10.9789 8.63061 10.9493 8.76361 10.9206C8.83121 10.906 8.92282 10.8887 9.0343 10.8743C9.14044 10.8606 9.30111 10.8448 9.5 10.8448V18.8448ZM12.2317 18.0581C12.8963 17.7004 13.537 17.2996 14.1499 16.8583L9.47524 10.3662C9.14397 10.6047 8.79827 10.8209 8.44035 11.0136L12.2317 18.0581ZM14.1163 16.8823C15.6915 15.7725 17.4489 14.3326 18.8336 12.5611L12.5305 7.6345C11.8263 8.53552 10.7717 9.45256 9.50883 10.3423L14.1163 16.8823ZM18.8331 12.5617C20.2264 10.7798 21.3714 8.4925 21.3714 5.77448H13.3714C13.3714 6.15274 13.2223 6.74984 12.531 7.63389L18.8331 12.5617ZM21.3714 5.77448C21.3714 1.39119 17.6248 -1.84483 13.4086 -1.84483V6.15517C13.5241 6.15517 13.5368 6.19229 13.5026 6.16028C13.477 6.13628 13.3714 6.01214 13.3714 5.77448H21.3714ZM13.4086 -1.84483C10.5227 -1.84483 8.23638 -0.167983 6.95334 1.5319L13.3387 6.35141C13.3707 6.30897 13.4112 6.26446 13.4565 6.22392C13.5019 6.1834 13.5414 6.15643 13.5683 6.14095C13.6292 6.10594 13.5754 6.15517 13.4086 6.15517V-1.84483ZM6.95375 1.53136C7.24579 1.14457 7.62578 0.825642 8.06791 0.604057L11.6524 7.7561C12.3185 7.42223 12.8941 6.94015 13.3383 6.35195L6.95375 1.53136ZM8.06791 0.604057C8.51032 0.382328 9.00056 0.265418 9.5 0.265418V8.26542C10.2492 8.26542 10.9859 8.09011 11.6524 7.7561L8.06791 0.604057ZM9.5 0.265418C9.99944 0.265418 10.4897 0.382328 10.9321 0.604057L7.34764 7.7561C8.01408 8.09011 8.75076 8.26542 9.5 8.26542V0.265418ZM10.9321 0.604057C11.3742 0.825642 11.7542 1.14457 12.0463 1.53136L5.66175 6.35195C6.10586 6.94015 6.68147 7.42223 7.34764 7.7561L10.9321 0.604057ZM12.0467 1.5319C10.764 -0.167425 8.47889 -1.84483 5.59143 -1.84483V6.15517C5.42545 6.15517 5.37156 6.10614 5.43171 6.14075C5.45839 6.15609 5.49776 6.18295 5.5431 6.22345C5.58844 6.26397 5.62904 6.30861 5.66134 6.35141L12.0467 1.5319Z" fill="#5C5C5C" mask="url(#path-1-inside-1_101_9631)"/>
</svg>
