<svg width="16" height="17" viewBox="0 0 16 17" fill="none" xmlns="http://www.w3.org/2000/svg">
<path d="M8.11191 0.500743C3.61288 0.43998 -0.0600231 4.11271 0.000743315 8.61152C0.0607405 12.9261 3.57404 16.4392 7.88884 16.4992C12.3886 16.5608 16.0608 12.888 15.9992 8.38923C15.94 4.07387 12.4267 0.560738 8.11191 0.500743ZM12.974 13.0861C12.9587 13.1027 12.9399 13.1157 12.919 13.1242C12.8981 13.1327 12.8756 13.1365 12.853 13.1353C12.8305 13.1341 12.8085 13.128 12.7886 13.1174C12.7687 13.1067 12.7514 13.0919 12.7378 13.0738C12.3938 12.6238 11.9726 12.2384 11.4937 11.9358C10.5145 11.3074 9.27378 10.9613 8.00037 10.9613C6.72697 10.9613 5.48626 11.3074 4.50707 11.9358C4.02818 12.2383 3.6069 12.6234 3.2629 13.0734C3.24939 13.0915 3.23206 13.1063 3.21215 13.117C3.19225 13.1276 3.17025 13.1337 3.14771 13.1349C3.12518 13.1361 3.10266 13.1323 3.08176 13.1238C3.06085 13.1153 3.04208 13.1023 3.02676 13.0857C1.89822 11.8675 1.25895 10.2757 1.23146 8.61536C1.16877 4.87302 4.23978 1.74063 7.98384 1.7314C11.7279 1.72217 14.7693 4.76227 14.7693 8.49999C14.7706 10.2004 14.1293 11.8385 12.974 13.0861Z" fill="#5C5C5C"/>
<path d="M8.21013 4.29028C7.43171 4.29028 6.7279 4.58199 6.22777 5.11213C5.72763 5.64226 5.47777 6.37528 5.53421 7.16199C5.64869 8.71134 6.84908 9.97449 8.21013 9.97449C9.57119 9.97449 10.7692 8.71134 10.8861 7.16239C10.9445 6.38318 10.6966 5.65686 10.1882 5.11686C9.68605 4.58397 8.98342 4.29028 8.21013 4.29028Z" fill="#5C5C5C"/>
</svg>
